# xmcd CD database file
#
# Track frame offsets:
#	150
#	33222
#	65327
#	110492
#	116542
#	137812
#	161240
#	191042
#	201710
#	230435
#
# Disc length: 3424 seconds
#
# Revision: 0
# Processed by: cddbd v1.5.1PL2 Copyright (c) Steve Scherf et al.
# Submitted via: CDex 1.51
#
DISCID=930d5e0a
DTITLE=BOZO - DUENDE
DYEAR=2005
DGENRE=Jazz
TTITLE0=DUENDE
TTITLE1=RAINY PARK WITH BUTTERFLY
TTITLE2=RED CONTEXT
TTITLE3=CHAT 1
TTITLE4=SUE'S SONG
TTITLE5=MARS RUSH
TTITLE6=IMADA MINU YAMA - THE MOUNTAIN YET TO SEE-
TTITLE7=CHAT 2
TTITLE8=EQUILIBRIUM
TTITLE9=THE ALBATROSS
EXTD=YEAR: 2005
EXTT0=
EXTT1=
EXTT2=
EXTT3=
EXTT4=
EXTT5=
EXTT6=
EXTT7=
EXTT8=
EXTT9=
PLAYORDER=
